HIERARCHY
ROOT Hips
{
	OFFSET 0.00 0.00 0.00
	CHANNELS 6 Xposition Yposition Zposition Xrotation Yrotation Zrotation
	JOINT Spine
	{
		OFFSET 0.00000 1.70439 2.55658
		CHANNELS 3 Xrotation Yrotation Zrotation
		JOINT Spine1
		{
			OFFSET 0.00000 0.59193 3.35699
			CHANNELS 3 Xrotation Yrotation Zrotation
			JOINT Spine2
			{
				OFFSET 0.00000 0.29710 3.39581
				CHANNELS 3 Xrotation Yrotation Zrotation
				JOINT Spine3
				{
					OFFSET 0.00000 0.00000 3.40878
					CHANNELS 3 Xrotation Yrotation Zrotation
					JOINT Neck
					{
						OFFSET 0.00000 -1.27828 8.94804
						CHANNELS 3 Xrotation Yrotation Zrotation
						JOINT Head
						{
							OFFSET 0.00000 -0.81390 4.61586
							CHANNELS 3 Xrotation Yrotation Zrotation
							End Site
							{
								OFFSET 0.00000 0.00001 5.51796
							}
						}
					}
					JOINT RightShoulder
					{
						OFFSET -1.18875 -1.98124 6.41925
						CHANNELS 3 Xrotation Yrotation Zrotation
						JOINT RightArm
						{
							OFFSET -5.90412 0.00000 0.00000
							CHANNELS 3 Xrotation Yrotation Zrotation
							JOINT RightForeArm
							{
								OFFSET -11.94674 0.00000 0.00000
								CHANNELS 3 Xrotation Yrotation Zrotation
								JOINT RightHand
								{
									OFFSET -10.17720 0.00000 0.00000
									CHANNELS 3 Xrotation Yrotation Zrotation
									JOINT RightHandEnd
									{
										OFFSET -2.84518 0.00000 0.00000
										CHANNELS 3 Xrotation Yrotation Zrotation
										End Site
										{
											OFFSET -2.84518 0.00000 0.00000
										}
									}
									JOINT RightHandThumb1
									{
										OFFSET -1.13807 -1.89679 -0.75871
										CHANNELS 3 Yrotation Xrotation Zrotation
										End Site
										{
											OFFSET -2.74823 -0.73639 0.00000
										}
									}
								}
							}
						}
					}
					JOINT LeftShoulder
					{
						OFFSET 1.18875 -1.98124 6.41925
						CHANNELS 3 Xrotation Yrotation Zrotation
						JOINT LeftArm
						{
							OFFSET 5.90412 0.00000 0.00000
							CHANNELS 3 Xrotation Yrotation Zrotation
							JOINT LeftForeArm
							{
								OFFSET 11.94674 0.00000 0.00000
								CHANNELS 3 Xrotation Yrotation Zrotation
								JOINT LeftHand
								{
									OFFSET 10.17720 0.00000 0.00000
									CHANNELS 3 Xrotation Yrotation Zrotation
									JOINT LeftHandEnd
									{
										OFFSET 2.84518 0.00000 0.00000
										CHANNELS 3 Xrotation Yrotation Zrotation
										End Site
										{
											OFFSET 2.84518 0.00000 0.00000
										}
									}
									JOINT LeftHandThumb1
									{
										OFFSET 1.13807 -1.89679 -0.75871
										CHANNELS 3 Yrotation Xrotation Zrotation
										End Site
										{
											OFFSET 2.74823 -0.73639 0.00000
										}
									}
								}
							}
						}
					}
				}
			}
		}
	}
	JOINT RightUpLeg
	{
		OFFSET -3.52662 0.00000 -1.03025
		CHANNELS 3 Xrotation Yrotation Zrotation
		JOINT RightLeg
		{
			OFFSET 0.00001 0.00000 -17.80159
			CHANNELS 3 Xrotation Yrotation Zrotation
			JOINT RightFoot
			{
				OFFSET 0.00001 0.00000 -16.85992
				CHANNELS 3 Xrotation Yrotation Zrotation
				JOINT RightToeBase
				{
					OFFSET 0.00000 -5.42953 -1.97619
					CHANNELS 3 Xrotation Yrotation Zrotation
					End Site
					{
						OFFSET 0.00000 -2.85300 -0.00000
					}
				}
			}
		}
	}
	JOINT LeftUpLeg
	{
		OFFSET 3.52662 0.00000 -1.03025
		CHANNELS 3 Xrotation Yrotation Zrotation
		JOINT LeftLeg
		{
			OFFSET 0.00001 0.00000 -17.80159
			CHANNELS 3 Xrotation Yrotation Zrotation
			JOINT LeftFoot
			{
				OFFSET 0.00001 0.00000 -16.85992
				CHANNELS 3 Xrotation Yrotation Zrotation
				JOINT LeftToeBase
				{
					OFFSET 0.00000 -5.42953 -1.97619
					CHANNELS 3 Xrotation Yrotation Zrotation
					End Site
					{
						OFFSET 0.00000 -2.85300 -0.00000
					}
				}
			}
		}
	}
}
MOTION
Frames: 14
Frame Time: 0.008342
 -2.7370 99.0651 37.6044 4.5650 4.0769 -175.5053 1.2410 2.5021 -0.4513 0.3136 0.1222 0.0918 4.3045 -0.1476 2.0604 1.7123 0.0981 0.7956 5.4767 1.8185 2.4833 1.7585 2.2749 4.7095 18.8649 -23.2912 11.1947 27.0253 -28.5950 35.8474 0.0000 0.0000 26.6501 -9.2061 18.0081 2.2434 0.0000 -0.0000 -0.0000 -0.0000 -0.0000 0.0000 14.8824 14.9143 -8.9475 30.3883 36.0896 -34.9319 -0.0000 -0.0000 -30.0375 -6.8253 -16.3732 1.6315 0.0000 0.0000 0.0000 0.0000 0.0000 0.0000 -2.7513 13.3333 -31.3041 19.8676 0.0000 0.0000 -10.4170 -4.2482 -1.2264 3.1893 0.0000 0.0000 -1.7913 4.1971 9.1210 14.9921 0.0000 0.0000 -7.5611 0.4020 6.6297 -2.4471 0.0000 -0.0000
 -2.7185 99.1311 37.6118 4.6765 4.0496 -175.5375 1.2530 2.5099 -0.4654 0.3068 0.1521 0.0881 4.3289 -0.1653 1.9266 1.7270 0.1031 0.7673 5.5411 1.8117 2.4899 1.7539 2.2939 4.8045 18.9095 -23.2928 11.0771 27.8782 -28.4066 36.2803 0.0000 0.0000 25.5348 -9.4207 17.7439 2.0950 0.0000 0.0000 0.0000 0.0000 -0.0000 -0.0000 14.8008 14.8884 -9.0723 29.2667 36.5241 -34.2127 -0.0000 -0.0000 -30.4542 -7.3210 -16.6404 1.5499 0.0000 -0.0000 0.0000 -0.0000 0.0000 0.0000 -2.3867 13.1646 -31.2443 19.6223 0.0000 0.0000 -10.5656 -4.2890 -1.3584 3.0046 0.0000 0.0000 -1.5201 4.1475 9.0424 14.8761 0.0000 0.0000 -7.5923 0.4182 6.7080 -2.4824 0.0000 -0.0000
 -2.6983 99.1961 37.6201 4.7817 4.0073 -175.5349 1.2615 2.5082 -0.4783 0.2989 0.1833 0.0797 4.3558 -0.1927 1.7840 1.7387 0.1073 0.7370 5.6018 1.7959 2.4867 1.7452 2.3171 4.8962 18.9417 -23.2978 10.9412 28.6666 -28.2690 36.6653 0.0000 0.0000 24.4411 -9.5575 17.4358 1.8793 0.0000 -0.0000 -0.0000 0.0000 -0.0000 0.0000 14.7340 14.8470 -9.2046 28.1984 36.9202 -33.5410 -0.0000 -0.0000 -30.8703 -7.7924 -16.8759 1.4779 0.0000 0.0000 0.0000 0.0000 -0.0000 -0.0000 -1.9852 12.9818 -31.3568 19.2993 0.0000 0.0000 -10.6675 -4.3746 -1.3448 2.8054 0.0000 0.0000 -1.2609 4.0782 8.9564 14.7673 0.0000 0.0000 -7.6147 0.4318 6.7601 -2.5083 0.0000 -0.0000
 -2.6765 99.2599 37.6291 4.8758 3.9454 -175.4989 1.2598 2.4886 -0.4961 0.2947 0.2194 0.0771 4.3816 -0.2285 1.6291 1.7497 0.1092 0.7071 5.6576 1.7735 2.4755 1.7330 2.3408 4.9816 18.9728 -23.3069 10.7885 29.3769 -28.1789 37.0014 0.0000 0.0000 23.3785 -9.6263 17.0898 1.5942 -0.0000 -0.0000 0.0000 -0.0000 -0.0000 0.0000 14.6793 14.7933 -9.3464 27.1957 37.2708 -32.9215 -0.0000 -0.0000 -31.2828 -8.2377 -17.0836 1.4084 0.0000 0.0000 0.0000 -0.0000 0.0000 0.0000 -1.5606 12.7794 -31.6322 18.9012 0.0000 0.0000 -10.7054 -4.4811 -1.1903 2.6265 0.0000 0.0000 -1.0222 3.9831 8.8651 14.6722 0.0000 0.0000 -7.6358 0.4454 6.7860 -2.5200 0.0000 -0.0000
 -2.6532 99.3241 37.6390 4.9928 3.8713 -175.4367 1.2861 2.4575 -0.5148 0.2922 0.2579 0.0742 4.4025 -0.2726 1.4662 1.7584 0.1102 0.6800 5.7109 1.7438 2.4548 1.7194 2.3638 5.0631 19.0087 -23.3153 10.6201 30.0033 -28.1433 37.2880 0.0000 0.0000 22.3551 -9.6394 16.7161 1.2508 -0.0000 -0.0000 0.0000 -0.0000 -0.0000 0.0000 14.6402 14.7255 -9.4967 26.2732 37.5709 -32.3656 -0.0000 -0.0000 -31.6933 -8.6522 -17.2707 1.3453 0.0000 0.0000 0.0000 -0.0000 0.0000 -0.0000 -1.0831 12.5623 -32.0627 18.4361 0.0000 0.0000 -10.6725 -4.5907 -0.8987 2.4935 0.0000 0.0000 -0.7596 3.8666 8.7776 14.5771 0.0000 0.0000 -7.6554 0.4633 6.7822 -2.5155 0.0000 -0.0000
 -2.6281 99.3862 37.6489 5.0891 3.7789 -175.3532 1.2955 2.4133 -0.5339 0.2897 0.2939 0.0704 4.4255 -0.3201 1.3034 1.7646 0.1119 0.6541 5.7595 1.7006 2.4264 1.7017 2.3926 5.1389 19.0395 -23.3368 10.4461 30.5381 -28.1633 37.4953 0.0000 0.0000 21.3908 -9.6059 16.3194 0.8549 0.0000 0.0000 0.0000 0.0000 -0.0000 -0.0000 14.5879 14.6463 -9.6542 25.4351 37.8410 -31.8532 -0.0000 -0.0000 -32.1066 -9.0115 -17.4235 1.2912 0.0000 0.0000 0.0000 -0.0000 -0.0000 0.0000 -0.6211 12.3286 -32.5985 17.9368 0.0000 0.0000 -10.5753 -4.6856 -0.5118 2.4197 0.0000 0.0000 -0.5320 3.7243 8.6963 14.5018 0.0000 0.0000 -7.6850 0.4872 6.7561 -2.4938 0.0000 -0.0000
 -2.6021 99.4460 37.6584 5.1631 3.6794 -175.2585 1.2911 2.3667 -0.5533 0.2881 0.3234 0.0660 4.4443 -0.3658 1.1495 1.7695 0.1095 0.6291 5.8027 1.6570 2.3923 1.6802 2.4171 5.2073 19.0855 -23.3655 10.2590 30.9808 -28.2143 37.6481 0.0000 0.0000 20.4832 -9.5565 15.9130 0.4160 0.0000 0.0000 -0.0000 0.0000 -0.0000 -0.0000 14.5456 14.5687 -9.8120 24.7042 38.0360 -31.4258 -0.0000 -0.0000 -32.5070 -9.3550 -17.5660 1.2247 0.0000 0.0000 0.0000 0.0000 0.0000 -0.0000 -0.1927 12.0951 -33.2001 17.4373 0.0000 0.0000 -10.4320 -4.7577 -0.0610 2.4079 0.0000 0.0000 -0.3387 3.5706 8.6209 14.4416 0.0000 0.0000 -7.7236 0.5185 6.7198 -2.4580 0.0000 -0.0000
 -2.5752 99.5046 37.6676 5.2438 3.5790 -175.1610 1.3033 2.3185 -0.5697 0.2859 0.3534 0.0631 4.4574 -0.4148 1.0004 1.7725 0.1067 0.6080 5.8414 1.6072 2.3520 1.6589 2.4398 5.2700 19.1402 -23.3975 10.0699 31.3282 -28.3167 37.7269 0.0000 0.0000 19.6506 -9.4960 15.5143 -0.0575 0.0000 0.0000 0.0000 0.0000 0.0000 -0.0000 14.5033 14.4823 -9.9752 24.0667 38.1915 -31.0582 -0.0000 -0.0000 -32.9093 -9.6555 -17.6850 1.1591 0.0000 0.0000 0.0000 -0.0000 0.0000 -0.0000 0.2257 11.8665 -33.8333 16.9586 0.0000 0.0000 -10.2606 -4.8076 0.4207 2.4490 0.0000 0.0000 -0.1436 3.4098 8.5592 14.3867 0.0000 0.0000 -7.7705 0.5592 6.6721 -2.4124 0.0000 -0.0000
 -2.5482 99.5608 37.6759 5.3109 3.4846 -175.0701 1.3116 2.2791 -0.5817 0.2881 0.3798 0.0584 4.4628 -0.4687 0.8659 1.7725 0.1067 0.5873 5.8747 1.5543 2.3106 1.6370 2.4606 5.3272 19.1949 -23.4378 9.8840 31.5866 -28.4643 37.7186 0.0000 0.0000 18.9063 -9.4359 15.1344 -0.5576 0.0000 0.0000 0.0000 -0.0000 -0.0000 0.0000 14.4510 14.4014 -10.1272 23.5393 38.2926 -30.7621 -0.0000 -0.0000 -33.3075 -9.9249 -17.7832 1.0810 0.0000 -0.0000 0.0000 -0.0000 0.0000 0.0000 0.5959 11.6573 -34.4441 16.5365 0.0000 0.0000 -10.0884 -4.8384 0.8882 2.5272 0.0000 0.0000 0.0290 3.2532 8.5125 14.3410 0.0000 0.0000 -7.8253 0.6075 6.6234 -2.3624 0.0000 -0.0000
 -2.5210 99.6143 37.6832 5.3624 3.3937 -174.9898 1.3157 2.2430 -0.5925 0.2878 0.4012 0.0551 4.4655 -0.5179 0.7475 1.7712 0.1044 0.5726 5.9016 1.5017 2.2656 1.6121 2.4769 5.3770 19.2705 -23.4852 9.6947 31.7580 -28.6269 37.6523 0.0000 0.0000 18.2375 -9.4065 14.7870 -1.0583 0.0000 -0.0000 0.0000 -0.0000 0.0000 0.0000 14.3912 14.3232 -10.2783 23.1090 38.3517 -30.5259 -0.0000 -0.0000 -33.7051 -10.1522 -17.8605 0.9946 -0.0000 0.0000 -0.0000 0.0000 0.0000 -0.0000 0.9109 11.4649 -34.9942 16.1845 0.0000 0.0000 -9.9335 -4.8578 1.3046 2.6218 0.0000 0.0000 0.1740 3.0996 8.4783 14.3089 0.0000 0.0000 -7.8899 0.6614 6.5799 -2.3130 0.0000 -0.0000
 -2.4940 99.6647 37.6891 5.3923 3.3109 -174.9269 1.3125 2.2148 -0.5999 0.2822 0.4189 0.0489 4.4665 -0.5656 0.6536 1.7674 0.1033 0.5570 5.9216 1.4453 2.2213 1.5859 2.4971 5.4198 19.3589 -23.5394 9.5129 31.8471 -28.8110 37.5126 0.0000 0.0000 17.6599 -9.4046 14.4826 -1.5635 0.0000 -0.0000 -0.0000 -0.0000 -0.0000 0.0000 14.3327 14.2499 -10.4231 22.7627 38.3702 -30.3464 -0.0000 -0.0000 -34.1041 -10.3385 -17.9162 0.8978 0.0000 0.0000 -0.0000 -0.0000 0.0000 -0.0000 1.1569 11.2979 -35.4457 15.9198 0.0000 0.0000 -9.8159 -4.8754 1.6392 2.7130 0.0000 0.0000 0.2845 2.9565 8.4577 14.2915 0.0000 0.0000 -7.9620 0.7173 6.5468 -2.2693 0.0000 -0.0000
 -2.4674 99.7124 37.6937 5.4085 3.2406 -174.8852 1.3060 2.1985 -0.6036 0.2807 0.4316 0.0479 4.4585 -0.6092 0.5699 1.7633 0.1006 0.5476 5.9343 1.3932 2.1791 1.5588 2.5109 5.4578 19.4596 -23.5980 9.3396 31.8632 -29.0085 37.3070 0.0000 0.0000 17.1698 -9.4374 14.2342 -2.0494 0.0000 0.0000 0.0000 0.0000 0.0000 -0.0000 14.2739 14.1839 -10.5581 22.4995 38.3501 -30.2230 -0.0000 -0.0000 -34.5026 -10.4787 -17.9552 0.7869 -0.0000 -0.0000 -0.0000 0.0000 0.0000 0.0000 1.3439 11.1603 -35.7850 15.7431 0.0000 0.0000 -9.7461 -4.9011 1.8819 2.7835 0.0000 0.0000 0.3716 2.8299 8.4474 14.2845 0.0000 0.0000 -8.0368 0.7716 6.5289 -2.2354 0.0000 -0.0000
 -2.4414 99.7575 37.6970 5.4137 3.1820 -174.8660 1.2986 2.1925 -0.6067 0.2797 0.4404 0.0473 4.4463 -0.6492 0.5043 1.7576 0.0960 0.5438 5.9398 1.3444 2.1384 1.5305 2.5241 5.4918 19.5760 -23.6594 9.1723 31.8137 -29.2082 37.0469 0.0000 0.0000 16.7659 -9.5031 14.0442 -2.5117 0.0000 -0.0000 -0.0000 -0.0000 -0.0000 0.0000 14.2158 14.1252 -10.6838 22.3042 38.3039 -30.1442 -0.0000 -0.0000 -34.9028 -10.5616 -17.9750 0.6645 -0.0000 0.0000 -0.0000 0.0000 0.0000 0.0000 1.4792 11.0485 -36.0065 15.6441 0.0000 0.0000 -9.7255 -4.9420 2.0309 2.8214 0.0000 0.0000 0.4391 2.7200 8.4447 14.2875 0.0000 0.0000 -8.1125 0.8201 6.5282 -2.2133 0.0000 -0.0000
 -2.4163 99.7995 37.6989 5.3926 3.1406 -174.8716 1.2730 2.2042 -0.6044 0.2811 0.4455 0.0519 4.4310 -0.6870 0.4434 1.7514 0.0913 0.5476 5.9376 1.2972 2.1007 1.5003 2.5397 5.5252 19.6998 -23.7224 9.0193 31.7035 -29.4169 36.7270 0.0000 0.0000 16.4463 -9.5904 13.9154 -2.9352 -0.0000 0.0000 -0.0000 -0.0000 -0.0000 0.0000 14.1644 14.0748 -10.8009 22.1626 38.2333 -30.1002 -0.0000 -0.0000 -35.3066 -10.5808 -17.9803 0.5324 0.0000 -0.0000 0.0000 0.0000 -0.0000 0.0000 1.5455 10.9701 -36.1049 15.6213 0.0000 0.0000 -9.7577 -4.9986 2.0881 2.8224 0.0000 0.0000 0.4712 2.6358 8.4449 14.2996 0.0000 0.0000 -8.1839 0.8592 6.5504 -2.2037 0.0000 -0.0000
